<svg id="Layer_2" data-name="Layer 2" xmlns="http://www.w3.org/2000/svg" viewBox="0 0 1920 1080"><defs><style>.cls-1,.cls-2,.cls-3,.cls-4,.cls-5,.cls-6,.cls-7{fill:none;stroke-linecap:round;stroke-linejoin:round;stroke-width:20px;}.cls-1{stroke:#0b9444;}.cls-2{stroke:#283891;}.cls-3{stroke:#7f3f98;}.cls-4{stroke:#ed1c24;}.cls-5{stroke:#f06da9;}.cls-6{stroke:#00aeef;}.cls-7{stroke:#ffde16;}</style></defs><line class="cls-1" y1="315" x2="497" y2="315"/><polyline class="cls-2" points="497 315 799.5 611.5 1025 611.5 1407.5 229 1920 229"/><polyline class="cls-3" points="655 -47 655 345.94 717.5 408.44 717.5 682.62 787.88 753 1927.88 753"/><polyline class="cls-4" points="1108 -19 1108 101 1025 184 1025 1115.81"/><polyline class="cls-5" points="0 35 380 35 533 188 655 188 828 361 1275.5 361 1275.5 1115.81"/><polyline class="cls-6" points="1406 -13 1127 266 982 266 887 361 887 819 786 920 786 1021 705 1102"/><polyline class="cls-7" points="1920 557 1266 557 1173 464 0 459"/></svg>